<svg id="Layer_1" data-name="Layer 1" xmlns="http://www.w3.org/2000/svg" viewBox="0 0 800 240"><defs><style>.cls-1{opacity:0.96;}.cls-2{fill:#86bfcc;}</style></defs><title>ElevatLogo_MediumRes-01</title><g class="cls-1"><path class="cls-2" d="M800,77.22v4.2a2.88,2.88,0,0,1-2.53,3.18,3,3,0,0,1-.6,0H764.09V229a2.89,2.89,0,0,1-2.59,3.13h-5.36A2.88,2.88,0,0,1,753,229.5a2.44,2.44,0,0,1,0-.54V84.6H720.19A2.86,2.86,0,0,1,717.06,82a3,3,0,0,1,0-.6v-4.2A2.88,2.88,0,0,1,719.59,74a3,3,0,0,1,.6,0H753V26.6a2.86,2.86,0,0,1,2.59-3.12,2.44,2.44,0,0,1,.54,0H761a2.87,2.87,0,0,1,3.13,2.59,4.68,4.68,0,0,1,0,.53V74H796.8a2.88,2.88,0,0,1,3.14,2.58,4,4,0,0,1,0,.6M626,225c27.12,0,50.15-11.38,50.15-38.46S652,148.09,626,148.09c-29.29,0-46.57,15.38-46.57,38.46S596.7,225,626,225ZM631.11,70.5c31.49,0,56.41,20,56.41,56.41V229a2.81,2.81,0,0,1-2.48,3.12,2.92,2.92,0,0,1-.59,0h-4.82a2.82,2.82,0,0,1-3.13-2.48,2.36,2.36,0,0,1,0-.65V211.42c-9.85,17.33-29.64,23.85-52.16,23.85-29.64,0-56-16.77-56-48.77s26.51-48.67,56-48.67c22.72,0,42.11,8.1,51.8,23.85V127.27c0-30.77-20-46.15-45.23-46.15-24.41,0-43.38,13.17-45.08,36.66a3.12,3.12,0,0,1-3.17,3.08h-4.83a2.86,2.86,0,0,1-3.14-2.57,2.81,2.81,0,0,1,0-.71c1.8-27.75,23.85-47,56.41-47Zm-82.76,3.38c2.25,0,3.33,1.44,2.46,3.65L489.27,229.47a3.58,3.58,0,0,1-3.64,2.46h-7.95a3.59,3.59,0,0,1-3.59-2.46L412.55,77.53c-.82-2.21,0-3.65,2.47-3.65h5.12a3.49,3.49,0,0,1,3.59,2.52l57.8,143.48L539.42,76.29a3.6,3.6,0,0,1,3.64-2.51ZM254.46,148.55H386.25c-2.72-41.49-30.16-67.13-64.57-67.13-38.15,0-65.28,27.59-67.22,67.13m67.22-77.9c47.44,0,75.59,39.75,75.59,83V156a2.87,2.87,0,0,1-2.69,3,2.44,2.44,0,0,1-.54,0H254.56c2.56,39.59,30.36,65.95,68.1,65.95,26.61,0,47.59-12.92,56-32.15a3.89,3.89,0,0,1,3.69-2.31H388c2.31,0,3.54,1.23,2.77,3.13-9.9,25.12-35.9,41.84-68.2,41.84-46.82-.25-79.23-34.72-79.23-82.3,0-46.46,31.33-82.41,78.35-82.41ZM191.59,229V7.68a2.92,2.92,0,0,1,3.28-3.18h4.82a2.92,2.92,0,0,1,3.13,2.7,3.84,3.84,0,0,1,0,.48V229a2.89,2.89,0,0,1-2.59,3.13h-5.36a2.88,2.88,0,0,1-3.13-2.59,2.44,2.44,0,0,1,0-.54M11.13,148.55H143c-2.72-41.49-30.15-67.13-64.56-67.13-38.21,0-65.33,27.59-67.28,67.13m67.28-77.9c47.43,0,75.43,39.75,75.43,83V156a2.87,2.87,0,0,1-2.69,3,2.44,2.44,0,0,1-.54,0H11.23C13.79,198.65,41.59,225,79.33,225c26.62,0,47.59-12.92,56.1-32.15a3.86,3.86,0,0,1,3.7-2.31h5.53c2.36,0,3.54,1.23,2.77,3.13-9.89,25.12-35.89,41.84-68.2,41.84C32.41,235.27,0,200.8,0,153.22,0,106.6,31.38,70.65,78.41,70.65Z"/><rect class="cls-2" x="580.09" y="34.14" width="105.07" height="8.62"/></g></svg>